<svg width="96" height="97" viewBox="0 0 96 97" fill="none" xmlns="http://www.w3.org/2000/svg">
<circle cx="28" cy="68.0073" r="4" fill="#CA7EC2"/>
<circle cx="8" cy="48.0073" r="4" fill="#CA7EC2"/>
<circle cx="28" cy="28.0073" r="4" fill="#CA7EC2"/>
<circle cx="48" cy="48.0073" r="4" fill="#CA7EC2"/>
<circle cx="68" cy="28.0073" r="4" fill="#CA7EC2"/>
<circle cx="48" cy="88.0073" r="4" fill="#CA7EC2"/>
<circle cx="68" cy="68.0073" r="4" fill="#CA7EC2"/>
<circle cx="48" cy="8.00732" r="4" fill="#CA7EC2"/>
<circle cx="8" cy="8.00732" r="4" fill="#CA7EC2"/>
<circle cx="8" cy="88.0073" r="4" fill="#CA7EC2"/>
<circle cx="88" cy="88.0073" r="4" fill="#CA7EC2"/>
<circle cx="88" cy="8.00732" r="4" fill="#CA7EC2"/>
<circle cx="88" cy="48.0073" r="4" fill="#CA7EC2"/>
<path d="M0 28.0073C0 23.589 3.58172 20.0073 8 20.0073H16V28.0073C16 32.4256 12.4183 36.0073 8 36.0073C3.58172 36.0073 0 32.4256 0 28.0073Z" fill="#00C0B5"/>
<path d="M0 68.0073C0 63.589 3.58172 60.0073 8 60.0073C12.4183 60.0073 16 63.589 16 68.0073V76.0073H8C3.58172 76.0073 0 72.4256 0 68.0073Z" fill="#00C0B5"/>
<path d="M20 8.00732C20 3.58905 23.5817 0.00732422 28 0.00732422C32.4183 0.00732422 36 3.58905 36 8.00732V16.0073H20V8.00732Z" fill="#00C0B5"/>
<path d="M20 48.0073C20 43.589 23.5817 40.0073 28 40.0073H36V56.0073H28C23.5817 56.0073 20 52.4256 20 48.0073Z" fill="#00C0B5"/>
<path d="M20 80.0073H36V88.0073C36 92.4256 32.4183 96.0073 28 96.0073C23.5817 96.0073 20 92.4256 20 88.0073V80.0073Z" fill="#00C0B5"/>
<rect x="40" y="20.0073" width="16" height="16" fill="#00C0B5"/>
<path d="M40 60.0073H48C52.4183 60.0073 56 63.589 56 68.0073V76.0073H40V60.0073Z" fill="#00C0B5"/>
<path d="M60 8.00732C60 3.58905 63.5817 0.00732422 68 0.00732422C72.4183 0.00732422 76 3.58905 76 8.00732V16.0073H60V8.00732Z" fill="#00C0B5"/>
<path d="M60 40.0073H68C72.4183 40.0073 76 43.589 76 48.0073V56.0073H68C63.5817 56.0073 60 52.4256 60 48.0073V40.0073Z" fill="#00C0B5"/>
<path d="M60 80.0073H76V88.0073C76 92.4256 72.4183 96.0073 68 96.0073C63.5817 96.0073 60 92.4256 60 88.0073V80.0073Z" fill="#00C0B5"/>
<path d="M80 20.0073H88C92.4183 20.0073 96 23.589 96 28.0073C96 32.4256 92.4183 36.0073 88 36.0073C83.5817 36.0073 80 32.4256 80 28.0073V20.0073Z" fill="#00C0B5"/>
<path d="M80 60.0073H88C92.4183 60.0073 96 63.589 96 68.0073C96 72.4256 92.4183 76.0073 88 76.0073H80V60.0073Z" fill="#00C0B5"/>
<path d="M8 22.0073H10.6863C12.808 22.0073 14.8429 21.1645 16.3431 19.6642L19.6569 16.3505C21.1571 14.8502 22 12.8153 22 10.6936V8.00732" stroke="#00C0B5" stroke-width="4"/>
<path d="M28 14.0073L25.3137 14.0073C23.192 14.0073 21.1571 14.8502 19.6569 16.3505L16.3431 19.6642C14.8429 21.1645 14 23.1993 14 25.321L14 28.0073" stroke="#00C0B5" stroke-width="4"/>
<path d="M68 82.0073H70.6863C72.808 82.0073 74.8429 81.1645 76.3431 79.6642L79.6569 76.3505C81.1571 74.8502 82 72.8153 82 70.6936V68.0073" stroke="#00C0B5" stroke-width="4"/>
<path d="M88 74.0073L85.3137 74.0073C83.192 74.0073 81.1571 74.8502 79.6569 76.3505L76.3431 79.6642C74.8429 81.1645 74 83.1993 74 85.321L74 88.0073" stroke="#00C0B5" stroke-width="4"/>
<path d="M28 42.0073H30.6863C32.808 42.0073 34.8429 41.1645 36.3431 39.6642L39.6569 36.3505C41.1571 34.8502 42 32.8153 42 30.6936V28.0073" stroke="#00C0B5" stroke-width="4"/>
<path d="M48 34.0073L45.3137 34.0073C43.192 34.0073 41.1571 34.8502 39.6569 36.3505L36.3431 39.6642C34.8429 41.1645 34 43.1993 34 45.321L34 48.0073" stroke="#00C0B5" stroke-width="4"/>
<path d="M28 82.0073H30.6863C32.808 82.0073 34.8429 81.1645 36.3431 79.6642L39.6569 76.3505C41.1571 74.8502 42 72.8153 42 70.6936V68.0073" stroke="#00C0B5" stroke-width="4"/>
<path d="M48 74.0073L45.3137 74.0073C43.192 74.0073 41.1571 74.8502 39.6569 76.3505L36.3431 79.6642C34.8429 81.1645 34 83.1993 34 85.321L34 88.0073" stroke="#00C0B5" stroke-width="4"/>
<path d="M34 8.00732L34 10.6936C34 12.8153 34.8429 14.8502 36.3431 16.3505L39.6569 19.6642C41.1571 21.1645 43.192 22.0073 45.3137 22.0073L48 22.0073" stroke="#00C0B5" stroke-width="4"/>
<path d="M42 28.0073L42 25.321C42 23.1993 41.1571 21.1645 39.6569 19.6642L36.3431 16.3505C34.8429 14.8502 32.808 14.0073 30.6863 14.0073L28 14.0073" stroke="#00C0B5" stroke-width="4"/>
<path d="M54 28.0073L54 30.6936C54 32.8153 54.8429 34.8502 56.3431 36.3505L59.6569 39.6642C61.1571 41.1645 63.192 42.0073 65.3137 42.0073L68 42.0073" stroke="#00C0B5" stroke-width="4"/>
<path d="M62 48.0073L62 45.321C62 43.1993 61.1571 41.1645 59.6569 39.6642L56.3431 36.3505C54.8429 34.8502 52.808 34.0073 50.6863 34.0073L48 34.0073" stroke="#00C0B5" stroke-width="4"/>
<path d="M34 48.0073L34 50.6936C34 52.8153 34.8429 54.8502 36.3431 56.3505L39.6569 59.6642C41.1571 61.1645 43.192 62.0073 45.3137 62.0073L48 62.0073" stroke="#00C0B5" stroke-width="4"/>
<path d="M42 68.0073L42 65.321C42 63.1993 41.1571 61.1645 39.6569 59.6642L36.3431 56.3505C34.8429 54.8502 32.808 54.0073 30.6863 54.0073L28 54.0073" stroke="#00C0B5" stroke-width="4"/>
<path d="M74 8.00732L74 10.6936C74 12.8153 74.8429 14.8502 76.3431 16.3505L79.6569 19.6642C81.1571 21.1645 83.192 22.0073 85.3137 22.0073L88 22.0073" stroke="#00C0B5" stroke-width="4"/>
<path d="M82 28.0073L82 25.321C82 23.1993 81.1571 21.1645 79.6569 19.6642L76.3431 16.3505C74.8429 14.8502 72.808 14.0073 70.6863 14.0073L68 14.0073" stroke="#00C0B5" stroke-width="4"/>
<path d="M74 48.0073L74 50.6936C74 52.8153 74.8429 54.8502 76.3431 56.3505L79.6569 59.6642C81.1571 61.1645 83.192 62.0073 85.3137 62.0073L88 62.0073" stroke="#00C0B5" stroke-width="4"/>
<path d="M82 68.0073L82 65.321C82 63.1993 81.1571 61.1645 79.6569 59.6642L76.3431 56.3505C74.8429 54.8502 72.808 54.0073 70.6863 54.0073L68 54.0073" stroke="#00C0B5" stroke-width="4"/>
<path d="M54 68.0073L54 70.6936C54 72.8153 54.8429 74.8502 56.3431 76.3505L59.6569 79.6642C61.1571 81.1645 63.192 82.0073 65.3137 82.0073L68 82.0073" stroke="#00C0B5" stroke-width="4"/>
<path d="M62 88.0073L62 85.321C62 83.1993 61.1571 81.1645 59.6569 79.6642L56.3431 76.3505C54.8429 74.8502 52.808 74.0073 50.6863 74.0073L48 74.0073" stroke="#00C0B5" stroke-width="4"/>
<path d="M14 68.0073L14 70.6936C14 72.8153 14.8429 74.8502 16.3431 76.3505L19.6569 79.6642C21.1571 81.1645 23.192 82.0073 25.3137 82.0073L28 82.0073" stroke="#00C0B5" stroke-width="4"/>
<path d="M22 88.0073L22 85.321C22 83.1993 21.1571 81.1645 19.6569 79.6642L16.3431 76.3505C14.8429 74.8502 12.808 74.0073 10.6863 74.0073L8 74.0073" stroke="#00C0B5" stroke-width="4"/>
<path d="M48 22.0073H50.6863C52.808 22.0073 54.8429 21.1645 56.3431 19.6642L59.6569 16.3505C61.1571 14.8502 62 12.8153 62 10.6936V8.00732" stroke="#00C0B5" stroke-width="4"/>
<path d="M68 14.0073L65.3137 14.0073C63.192 14.0073 61.1571 14.8502 59.6569 16.3505L56.3431 19.6642C54.8429 21.1645 54 23.1993 54 25.321L54 28.0073" stroke="#00C0B5" stroke-width="4"/>
</svg>
