<svg width="726" height="215" viewBox="0 0 726 215" fill="none" xmlns="http://www.w3.org/2000/svg">
<rect width="726" height="215" fill="#392F75"/>
<path d="M678.464 88.8872C684.944 88.8872 690.024 90.8272 693.704 94.7072C697.384 98.5472 699.224 104.627 699.224 112.947V155.007H689.384V113.427C689.384 107.827 688.224 103.807 685.904 101.367C683.584 98.8872 680.324 97.6472 676.124 97.6472C673.124 97.6472 670.144 98.3072 667.184 99.6272C664.224 100.947 661.644 103.027 659.444 105.867C659.804 107.907 659.983 110.187 659.983 112.707V155.007H650.324V113.427C650.324 107.787 649.204 103.747 646.964 101.307C644.724 98.8672 641.544 97.6472 637.424 97.6472C634.264 97.6472 631.184 98.3872 628.184 99.8672C625.184 101.307 622.604 103.507 620.444 106.467V155.007H610.604V88.7739H618.884L619.604 97.4072H620.264C622.824 94.6472 625.804 92.5472 629.204 91.1072C632.604 89.6272 636.224 88.8872 640.064 88.8872C648.264 88.8872 653.963 92.0472 657.163 98.3672C660.243 95.0872 663.623 92.6872 667.303 91.1672C670.983 89.6472 674.704 88.8872 678.464 88.8872Z" fill="#00C0B5"/>
<path d="M588.389 155.007V88.7706H598.289V155.007H588.389ZM593.369 79.9072C591.169 79.9072 589.469 79.3672 588.269 78.2872C587.109 77.2072 586.529 75.7072 586.529 73.7872C586.529 71.8272 587.109 70.3072 588.269 69.2272C589.469 68.1472 591.169 67.6072 593.369 67.6072C595.569 67.6072 597.249 68.1472 598.409 69.2272C599.609 70.3072 600.209 71.8272 600.209 73.7872C600.209 75.7072 599.609 77.2072 598.409 78.2872C597.249 79.3672 595.569 79.9072 593.369 79.9072Z" fill="#00C0B5"/>
<path d="M542.561 155.007C538.429 155.007 534.192 154.67 529.849 153.995C525.549 153.321 521.502 152.33 517.707 151.023V141.98C521.797 143.371 525.992 144.404 530.292 145.079C534.592 145.753 538.703 146.09 542.624 146.09C558.898 146.09 567.034 140.357 567.034 128.889C567.034 125.727 566.36 123.113 565.011 121.047C563.704 118.939 561.617 117.19 558.75 115.798C555.883 114.365 551.983 113.1 547.051 112.004L541.612 110.803C532.927 108.863 526.498 105.828 522.324 101.696C518.192 97.5222 516.126 92.0414 516.126 85.2536C516.126 79.815 517.433 75.1352 520.047 71.2143C522.661 67.2935 526.561 64.279 531.746 62.171C536.974 60.063 543.425 59.009 551.098 59.009C559.066 59.009 566.507 60.0419 573.422 62.1078V71.1511C566.381 69.0009 559.024 67.9259 551.351 67.9259C543.045 67.9259 536.869 69.3804 532.822 72.2894C528.774 75.1563 526.751 79.288 526.751 84.6844C526.751 87.8043 527.341 90.3971 528.521 92.463C529.702 94.5288 531.62 96.2784 534.276 97.7119C536.932 99.1453 540.537 100.368 545.09 101.38L550.529 102.645C559.973 104.71 566.845 107.788 571.145 111.878C575.487 115.967 577.659 121.427 577.659 128.257C577.659 133.906 576.288 138.734 573.548 142.739C570.808 146.744 566.803 149.8 561.533 151.908C556.305 153.974 549.981 155.007 542.561 155.007Z" fill="#00C0B5"/>
<path d="M494.182 146.547C496.462 146.547 499.362 146.187 502.882 145.467V153.747C499.162 154.587 495.542 155.007 492.022 155.007C484.702 155.007 479.122 153.167 475.282 149.487C471.442 145.767 469.522 140.107 469.522 132.507V96.8672H456.682V88.7672H469.522L471.202 59.0091H479.362V88.7672H501.862V96.8672H479.362V130.887C479.362 136.487 480.582 140.507 483.022 142.947C485.462 145.347 489.182 146.547 494.182 146.547Z" fill="white"/>
<path d="M420.58 88.7671C426.54 88.7671 431.44 89.5156 435.28 91.0125C439.12 92.4701 442 94.9125 443.92 98.3397C445.88 101.767 446.86 106.396 446.86 112.226V155.007H438.64L437.92 146.616H437.26C435.02 149.216 432.1 151.265 428.5 152.762C424.9 154.219 421.08 154.948 417.04 154.948C412.72 154.948 409 154.239 405.88 152.821C402.8 151.403 400.44 149.374 398.8 146.735C397.16 144.095 396.34 140.983 396.34 137.398C396.34 131.804 398.3 127.471 402.22 124.398C406.14 121.286 412.4 119.317 421 118.489L437.2 116.776V111.812C437.2 107.912 436.54 104.859 435.22 102.653C433.94 100.447 432 98.8912 429.4 97.9852C426.84 97.0791 423.5 96.6261 419.38 96.6261C416.5 96.6261 413.42 96.8821 410.14 97.3943C406.86 97.867 403.68 98.6155 400.6 99.6397V91.7807C403.44 90.7958 406.64 90.0474 410.2 89.5353C413.76 89.0231 417.22 88.7671 420.58 88.7671ZM419.44 147.503C422.76 147.503 425.94 146.872 428.98 145.612C432.06 144.312 434.8 142.382 437.2 139.821V123.217L421.66 124.871C416.22 125.501 412.3 126.762 409.9 128.653C407.5 130.504 406.3 133.144 406.3 136.571C406.3 140.077 407.4 142.776 409.6 144.666C411.8 146.557 415.08 147.503 419.44 147.503Z" fill="white"/>
<path d="M353.583 88.7698H361.803L362.643 98.0348H363.243C365.563 95.104 368.543 92.8267 372.183 91.2028C375.863 89.579 379.683 88.7671 383.643 88.7671C385.683 88.7671 387.683 88.9453 389.643 89.3018V98.3318C387.843 98.015 385.683 97.8565 383.163 97.8565C379.643 97.8565 376.043 98.609 372.363 100.114C368.723 101.619 365.743 103.817 363.423 106.708V155.007H353.583V88.7698Z" fill="white"/>
<path d="M313.341 88.7671C319.301 88.7671 324.201 89.5156 328.041 91.0125C331.881 92.4701 334.761 94.9125 336.681 98.3397C338.641 101.767 339.621 106.396 339.621 112.226V155.007H331.401L330.681 146.616H330.021C327.781 149.216 324.861 151.265 321.261 152.762C317.661 154.219 313.841 154.948 309.801 154.948C305.481 154.948 301.761 154.239 298.641 152.821C295.561 151.403 293.201 149.374 291.561 146.735C289.921 144.095 289.101 140.983 289.101 137.398C289.101 131.804 291.061 127.471 294.981 124.398C298.901 121.286 305.161 119.317 313.761 118.489L329.961 116.776V111.812C329.961 107.912 329.301 104.859 327.981 102.653C326.701 100.447 324.761 98.8912 322.161 97.9852C319.601 97.0791 316.261 96.6261 312.141 96.6261C309.261 96.6261 306.181 96.8821 302.901 97.3943C299.621 97.867 296.441 98.6155 293.361 99.6397V91.7807C296.201 90.7958 299.401 90.0474 302.961 89.5353C306.521 89.0231 309.981 88.7671 313.341 88.7671ZM312.201 147.503C315.521 147.503 318.701 146.872 321.741 145.612C324.821 144.312 327.561 142.382 329.961 139.821V123.217L314.421 124.871C308.981 125.501 305.061 126.762 302.661 128.653C300.261 130.504 299.061 133.144 299.061 136.571C299.061 140.077 300.161 142.776 302.361 144.666C304.561 146.557 307.841 147.503 312.201 147.503Z" fill="white"/>
<path d="M224.433 59H234.273V97.109H234.873C237.713 94.389 240.973 92.329 244.653 90.929C248.373 89.489 252.353 88.769 256.593 88.769C263.473 88.769 268.873 90.689 272.793 94.529C276.753 98.369 278.733 104.449 278.733 112.769V155.007H268.893V113.309C268.893 107.709 267.593 103.689 264.993 101.249C262.393 98.809 258.673 97.589 253.833 97.589C250.233 97.589 246.693 98.309 243.213 99.749C239.733 101.149 236.753 103.269 234.273 106.109V155.007H224.433L224.433 59Z" fill="white"/>
<path d="M195.289 105.576C201.778 106.763 206.656 109.329 209.921 113.274C213.187 117.218 214.82 122.265 214.82 128.415C214.82 134.31 213.378 139.209 210.494 143.111C207.652 147.013 203.072 149.981 196.752 152.017C190.475 154.011 182.205 155.007 171.941 155.007C163.798 155.007 155.485 154.435 147.003 153.29V61.8065C156.079 59.9404 165.325 59.0073 174.741 59.0073C187.719 59.0073 197.198 61.0855 203.178 65.2419C209.158 69.3983 212.148 75.7389 212.148 84.2638C212.148 89.6501 210.748 94.2094 207.949 97.9417C205.15 101.674 200.93 104.219 195.289 105.576ZM175.758 67.4049C168.76 67.4049 162.653 67.8927 157.436 68.8682V101.632H178.303C186.489 101.632 192.49 100.274 196.307 97.56C200.124 94.8032 202.033 90.4984 202.033 84.6455C202.033 80.5315 201.142 77.2234 199.361 74.721C197.622 72.1763 194.823 70.3314 190.963 69.1862C187.146 67.9987 182.078 67.4049 175.758 67.4049ZM174.104 146.61C181.823 146.61 187.909 145.931 192.363 144.574C196.858 143.217 200.039 141.181 201.906 138.467C203.814 135.752 204.768 132.253 204.768 127.97C204.768 121.82 202.733 117.324 198.661 114.482C194.632 111.598 188.312 110.156 179.703 110.156H157.436V145.592C162.186 146.27 167.742 146.61 174.104 146.61Z" fill="white"/>
<circle cx="55" cy="127.007" r="4" fill="#CA7EC2"/>
<circle cx="35" cy="107.007" r="4" fill="#CA7EC2"/>
<circle cx="55" cy="87.0073" r="4" fill="#CA7EC2"/>
<circle cx="75" cy="107.007" r="4" fill="#CA7EC2"/>
<circle cx="95" cy="87.0073" r="4" fill="#CA7EC2"/>
<circle cx="75" cy="147.007" r="4" fill="#CA7EC2"/>
<circle cx="95" cy="127.007" r="4" fill="#CA7EC2"/>
<circle cx="75" cy="67.0073" r="4" fill="#CA7EC2"/>
<circle cx="35" cy="67.0073" r="4" fill="#CA7EC2"/>
<circle cx="35" cy="147.007" r="4" fill="#CA7EC2"/>
<circle cx="115" cy="147.007" r="4" fill="#CA7EC2"/>
<circle cx="115" cy="67.0073" r="4" fill="#CA7EC2"/>
<circle cx="115" cy="107.007" r="4" fill="#CA7EC2"/>
<path d="M27 87.0073C27 82.589 30.5817 79.0073 35 79.0073H43V87.0073C43 91.4256 39.4183 95.0073 35 95.0073C30.5817 95.0073 27 91.4256 27 87.0073Z" fill="#00C0B5"/>
<path d="M27 127.007C27 122.589 30.5817 119.007 35 119.007C39.4183 119.007 43 122.589 43 127.007V135.007H35C30.5817 135.007 27 131.426 27 127.007Z" fill="#00C0B5"/>
<path d="M47 67.0073C47 62.589 50.5817 59.0073 55 59.0073C59.4183 59.0073 63 62.589 63 67.0073V75.0073H47V67.0073Z" fill="#00C0B5"/>
<path d="M47 107.007C47 102.589 50.5817 99.0073 55 99.0073H63V115.007H55C50.5817 115.007 47 111.426 47 107.007Z" fill="#00C0B5"/>
<path d="M47 139.007H63V147.007C63 151.426 59.4183 155.007 55 155.007C50.5817 155.007 47 151.426 47 147.007V139.007Z" fill="#00C0B5"/>
<rect x="67" y="79.0073" width="16" height="16" fill="#00C0B5"/>
<path d="M67 119.007H75C79.4183 119.007 83 122.589 83 127.007V135.007H67V119.007Z" fill="#00C0B5"/>
<path d="M87 67.0073C87 62.589 90.5817 59.0073 95 59.0073C99.4183 59.0073 103 62.589 103 67.0073V75.0073H87V67.0073Z" fill="#00C0B5"/>
<path d="M87 99.0073H95C99.4183 99.0073 103 102.589 103 107.007V115.007H95C90.5817 115.007 87 111.426 87 107.007V99.0073Z" fill="#00C0B5"/>
<path d="M87 139.007H103V147.007C103 151.426 99.4183 155.007 95 155.007C90.5817 155.007 87 151.426 87 147.007V139.007Z" fill="#00C0B5"/>
<path d="M107 79.0073H115C119.418 79.0073 123 82.589 123 87.0073C123 91.4256 119.418 95.0073 115 95.0073C110.582 95.0073 107 91.4256 107 87.0073V79.0073Z" fill="#00C0B5"/>
<path d="M107 119.007H115C119.418 119.007 123 122.589 123 127.007C123 131.426 119.418 135.007 115 135.007H107V119.007Z" fill="#00C0B5"/>
<path d="M35 81.0073H37.6863C39.808 81.0073 41.8429 80.1645 43.3431 78.6642L46.6569 75.3505C48.1571 73.8502 49 71.8153 49 69.6936V67.0073" stroke="#00C0B5" stroke-width="4"/>
<path d="M55 73.0073L52.3137 73.0073C50.192 73.0073 48.1571 73.8502 46.6569 75.3505L43.3431 78.6642C41.8429 80.1645 41 82.1993 41 84.321L41 87.0073" stroke="#00C0B5" stroke-width="4"/>
<path d="M95 141.007H97.6863C99.808 141.007 101.843 140.164 103.343 138.664L106.657 135.35C108.157 133.85 109 131.815 109 129.694V127.007" stroke="#00C0B5" stroke-width="4"/>
<path d="M115 133.007L112.314 133.007C110.192 133.007 108.157 133.85 106.657 135.35L103.343 138.664C101.843 140.164 101 142.199 101 144.321L101 147.007" stroke="#00C0B5" stroke-width="4"/>
<path d="M55 101.007H57.6863C59.808 101.007 61.8429 100.164 63.3431 98.6642L66.6569 95.3505C68.1571 93.8502 69 91.8153 69 89.6936V87.0073" stroke="#00C0B5" stroke-width="4"/>
<path d="M75 93.0073L72.3137 93.0073C70.192 93.0073 68.1571 93.8502 66.6569 95.3505L63.3431 98.6642C61.8429 100.164 61 102.199 61 104.321L61 107.007" stroke="#00C0B5" stroke-width="4"/>
<path d="M55 141.007H57.6863C59.808 141.007 61.8429 140.164 63.3431 138.664L66.6569 135.35C68.1571 133.85 69 131.815 69 129.694V127.007" stroke="#00C0B5" stroke-width="4"/>
<path d="M75 133.007L72.3137 133.007C70.192 133.007 68.1571 133.85 66.6569 135.35L63.3431 138.664C61.8429 140.164 61 142.199 61 144.321L61 147.007" stroke="#00C0B5" stroke-width="4"/>
<path d="M61 67.0073L61 69.6936C61 71.8153 61.8429 73.8502 63.3431 75.3505L66.6569 78.6642C68.1571 80.1645 70.192 81.0073 72.3137 81.0073L75 81.0073" stroke="#00C0B5" stroke-width="4"/>
<path d="M69 87.0073L69 84.321C69 82.1993 68.1571 80.1645 66.6569 78.6642L63.3431 75.3505C61.8429 73.8502 59.808 73.0073 57.6863 73.0073L55 73.0073" stroke="#00C0B5" stroke-width="4"/>
<path d="M81 87.0073L81 89.6936C81 91.8153 81.8429 93.8502 83.3431 95.3505L86.6569 98.6642C88.1571 100.164 90.192 101.007 92.3137 101.007L95 101.007" stroke="#00C0B5" stroke-width="4"/>
<path d="M89 107.007L89 104.321C89 102.199 88.1571 100.164 86.6569 98.6642L83.3431 95.3505C81.8429 93.8502 79.808 93.0073 77.6863 93.0073L75 93.0073" stroke="#00C0B5" stroke-width="4"/>
<path d="M61 107.007L61 109.694C61 111.815 61.8429 113.85 63.3431 115.35L66.6569 118.664C68.1571 120.164 70.192 121.007 72.3137 121.007L75 121.007" stroke="#00C0B5" stroke-width="4"/>
<path d="M69 127.007L69 124.321C69 122.199 68.1571 120.164 66.6569 118.664L63.3431 115.35C61.8429 113.85 59.808 113.007 57.6863 113.007L55 113.007" stroke="#00C0B5" stroke-width="4"/>
<path d="M101 67.0073L101 69.6936C101 71.8153 101.843 73.8502 103.343 75.3505L106.657 78.6642C108.157 80.1645 110.192 81.0073 112.314 81.0073L115 81.0073" stroke="#00C0B5" stroke-width="4"/>
<path d="M109 87.0073L109 84.321C109 82.1993 108.157 80.1645 106.657 78.6642L103.343 75.3505C101.843 73.8502 99.808 73.0073 97.6863 73.0073L95 73.0073" stroke="#00C0B5" stroke-width="4"/>
<path d="M101 107.007L101 109.694C101 111.815 101.843 113.85 103.343 115.35L106.657 118.664C108.157 120.164 110.192 121.007 112.314 121.007L115 121.007" stroke="#00C0B5" stroke-width="4"/>
<path d="M109 127.007L109 124.321C109 122.199 108.157 120.164 106.657 118.664L103.343 115.35C101.843 113.85 99.808 113.007 97.6863 113.007L95 113.007" stroke="#00C0B5" stroke-width="4"/>
<path d="M81 127.007L81 129.694C81 131.815 81.8429 133.85 83.3431 135.35L86.6569 138.664C88.1571 140.164 90.192 141.007 92.3137 141.007L95 141.007" stroke="#00C0B5" stroke-width="4"/>
<path d="M89 147.007L89 144.321C89 142.199 88.1571 140.164 86.6569 138.664L83.3431 135.35C81.8429 133.85 79.808 133.007 77.6863 133.007L75 133.007" stroke="#00C0B5" stroke-width="4"/>
<path d="M41 127.007L41 129.694C41 131.815 41.8429 133.85 43.3431 135.35L46.6569 138.664C48.1571 140.164 50.192 141.007 52.3137 141.007L55 141.007" stroke="#00C0B5" stroke-width="4"/>
<path d="M49 147.007L49 144.321C49 142.199 48.1571 140.164 46.6569 138.664L43.3431 135.35C41.8429 133.85 39.808 133.007 37.6863 133.007L35 133.007" stroke="#00C0B5" stroke-width="4"/>
<path d="M75 81.0073H77.6863C79.808 81.0073 81.8429 80.1645 83.3431 78.6642L86.6569 75.3505C88.1571 73.8502 89 71.8153 89 69.6936V67.0073" stroke="#00C0B5" stroke-width="4"/>
<path d="M95 73.0073L92.3137 73.0073C90.192 73.0073 88.1571 73.8502 86.6569 75.3505L83.3431 78.6642C81.8429 80.1645 81 82.1993 81 84.321L81 87.0073" stroke="#00C0B5" stroke-width="4"/>
</svg>
